<svg width="126" height="126" viewBox="0 0 126 126" fill="none" xmlns="http://www.w3.org/2000/svg">
<rect x="0.675781" y="0.152344" width="125" height="125" fill="#F4D059"/>
<path d="M35.5109 54.7337C35.5109 55.5287 35.3784 56.2662 35.1134 56.9462C34.8534 57.6212 34.4834 58.2062 34.0034 58.7012C33.5234 59.1962 32.9459 59.5837 32.2709 59.8637C31.5959 60.1388 30.8459 60.2763 30.0209 60.2763C29.2009 60.2763 28.4534 60.1388 27.7784 59.8637C27.1034 59.5837 26.5234 59.1962 26.0384 58.7012C25.5584 58.2062 25.1859 57.6212 24.9209 56.9462C24.6559 56.2662 24.5234 55.5287 24.5234 54.7337C24.5234 53.9387 24.6559 53.2037 24.9209 52.5287C25.1859 51.8487 25.5584 51.2612 26.0384 50.7662C26.5234 50.2712 27.1034 49.8862 27.7784 49.6112C28.4534 49.3312 29.2009 49.1912 30.0209 49.1912C30.5709 49.1912 31.0884 49.2562 31.5734 49.3862C32.0584 49.5112 32.5034 49.6912 32.9084 49.9262C33.3134 50.1562 33.6759 50.4387 33.9959 50.7737C34.3209 51.1037 34.5959 51.4737 34.8209 51.8837C35.0459 52.2937 35.2159 52.7387 35.3309 53.2187C35.4509 53.6987 35.5109 54.2037 35.5109 54.7337ZM33.4484 54.7337C33.4484 54.1387 33.3684 53.6062 33.2084 53.1362C33.0484 52.6612 32.8209 52.2587 32.5259 51.9287C32.2309 51.5987 31.8709 51.3462 31.4459 51.1712C31.0259 50.9962 30.5509 50.9087 30.0209 50.9087C29.4909 50.9087 29.0134 50.9962 28.5884 51.1712C28.1684 51.3462 27.8084 51.5987 27.5084 51.9287C27.2134 52.2587 26.9859 52.6612 26.8259 53.1362C26.6659 53.6062 26.5859 54.1387 26.5859 54.7337C26.5859 55.3287 26.6659 55.8637 26.8259 56.3387C26.9859 56.8087 27.2134 57.2087 27.5084 57.5387C27.8084 57.8637 28.1684 58.1137 28.5884 58.2887C29.0134 58.4637 29.4909 58.5512 30.0209 58.5512C30.5509 58.5512 31.0259 58.4637 31.4459 58.2887C31.8709 58.1137 32.2309 57.8637 32.5259 57.5387C32.8209 57.2087 33.0484 56.8087 33.2084 56.3387C33.3684 55.8637 33.4484 55.3287 33.4484 54.7337ZM40.5602 54.4712C40.9402 54.4712 41.2702 54.4237 41.5502 54.3287C41.8352 54.2337 42.0677 54.1037 42.2477 53.9387C42.4327 53.7687 42.5702 53.5687 42.6602 53.3387C42.7502 53.1087 42.7952 52.8562 42.7952 52.5813C42.7952 52.0312 42.6127 51.6087 42.2477 51.3137C41.8877 51.0187 41.3352 50.8712 40.5902 50.8712H39.3002V54.4712H40.5602ZM45.7502 60.1562H43.9277C43.5827 60.1562 43.3327 60.0212 43.1777 59.7512L40.8977 56.2787C40.8127 56.1487 40.7177 56.0562 40.6127 56.0012C40.5127 55.9462 40.3627 55.9188 40.1627 55.9188H39.3002V60.1562H37.2827V49.3112H40.5902C41.3252 49.3112 41.9552 49.3887 42.4802 49.5437C43.0102 49.6937 43.4427 49.9062 43.7777 50.1812C44.1177 50.4562 44.3677 50.7862 44.5277 51.1712C44.6877 51.5512 44.7677 51.9712 44.7677 52.4312C44.7677 52.7962 44.7127 53.1412 44.6027 53.4662C44.4977 53.7912 44.3427 54.0862 44.1377 54.3512C43.9377 54.6162 43.6877 54.8487 43.3877 55.0487C43.0927 55.2487 42.7552 55.4062 42.3752 55.5212C42.5052 55.5962 42.6252 55.6862 42.7352 55.7912C42.8452 55.8912 42.9452 56.0112 43.0352 56.1512L45.7502 60.1562ZM56.5514 54.7337C56.5514 55.5287 56.4189 56.2587 56.1539 56.9237C55.8889 57.5887 55.5164 58.1612 55.0364 58.6412C54.5564 59.1212 53.9789 59.4937 53.3039 59.7587C52.6289 60.0237 51.8789 60.1562 51.0539 60.1562H46.9214V49.3112H51.0539C51.8789 49.3112 52.6289 49.4462 53.3039 49.7162C53.9789 49.9812 54.5564 50.3537 55.0364 50.8337C55.5164 51.3087 55.8889 51.8787 56.1539 52.5437C56.4189 53.2087 56.5514 53.9387 56.5514 54.7337ZM54.4814 54.7337C54.4814 54.1387 54.4014 53.6062 54.2414 53.1362C54.0864 52.6612 53.8589 52.2612 53.5589 51.9362C53.2639 51.6062 52.9039 51.3537 52.4789 51.1787C52.0589 51.0037 51.5839 50.9162 51.0539 50.9162H48.9464V58.5512H51.0539C51.5839 58.5512 52.0589 58.4637 52.4789 58.2887C52.9039 58.1137 53.2639 57.8637 53.5589 57.5387C53.8589 57.2087 54.0864 56.8087 54.2414 56.3387C54.4014 55.8637 54.4814 55.3287 54.4814 54.7337ZM60.3575 50.9162V53.9237H64.1525V55.4762H60.3575V58.5437H65.1725V60.1562H58.3325V49.3112H65.1725V50.9162H60.3575ZM70.2379 54.4712C70.6179 54.4712 70.9479 54.4237 71.2279 54.3287C71.5129 54.2337 71.7454 54.1037 71.9254 53.9387C72.1104 53.7687 72.2479 53.5687 72.3379 53.3387C72.4279 53.1087 72.4729 52.8562 72.4729 52.5813C72.4729 52.0312 72.2904 51.6087 71.9254 51.3137C71.5654 51.0187 71.0129 50.8712 70.2679 50.8712H68.9779V54.4712H70.2379ZM75.4279 60.1562H73.6054C73.2604 60.1562 73.0104 60.0212 72.8554 59.7512L70.5754 56.2787C70.4904 56.1487 70.3954 56.0562 70.2904 56.0012C70.1904 55.9462 70.0404 55.9188 69.8404 55.9188H68.9779V60.1562H66.9604V49.3112H70.2679C71.0029 49.3112 71.6329 49.3887 72.1579 49.5437C72.6879 49.6937 73.1204 49.9062 73.4554 50.1812C73.7954 50.4562 74.0454 50.7862 74.2054 51.1712C74.3654 51.5512 74.4454 51.9712 74.4454 52.4312C74.4454 52.7962 74.3904 53.1412 74.2804 53.4662C74.1754 53.7912 74.0204 54.0862 73.8154 54.3512C73.6154 54.6162 73.3654 54.8487 73.0654 55.0487C72.7704 55.2487 72.4329 55.4062 72.0529 55.5212C72.1829 55.5962 72.3029 55.6862 72.4129 55.7912C72.5229 55.8912 72.6229 56.0112 72.7129 56.1512L75.4279 60.1562ZM31.9559 74.6092C31.9993 74.6092 32.0361 74.6244 32.0664 74.6547L32.3264 74.9342C32.1358 75.1379 31.9278 75.3221 31.7024 75.4867C31.4814 75.6471 31.2366 75.7857 30.9679 75.9027C30.7036 76.0154 30.4111 76.1021 30.0904 76.1628C29.7741 76.2278 29.4253 76.2603 29.0439 76.2603C28.4069 76.2603 27.8219 76.1498 27.2889 75.9287C26.7603 75.7034 26.3053 75.3871 25.9239 74.9797C25.5426 74.5681 25.2458 74.0719 25.0334 73.4912C24.8254 72.9106 24.7214 72.2649 24.7214 71.5542C24.7214 70.8566 24.8298 70.2196 25.0464 69.6432C25.2631 69.0669 25.5664 68.5729 25.9564 68.1612C26.3464 67.7452 26.8144 67.4246 27.3604 67.1992C27.9064 66.9696 28.5088 66.8547 29.1674 66.8547C29.7958 66.8547 30.3526 66.9522 30.8379 67.1472C31.3233 67.3422 31.7653 67.6174 32.1639 67.9727L31.9624 68.2652C31.9278 68.3172 31.8736 68.3432 31.7999 68.3432C31.7479 68.3432 31.6634 68.2956 31.5464 68.2002C31.4294 68.1049 31.2669 68.0009 31.0589 67.8882C30.8509 67.7712 30.5909 67.6651 30.2789 67.5697C29.9713 67.4744 29.6008 67.4267 29.1674 67.4267C28.6128 67.4267 28.1036 67.5221 27.6399 67.7127C27.1806 67.9034 26.7841 68.1764 26.4504 68.5317C26.1211 68.8871 25.8633 69.3204 25.6769 69.8317C25.4906 70.3431 25.3974 70.9172 25.3974 71.5542C25.3974 72.2042 25.4906 72.7849 25.6769 73.2962C25.8676 73.8076 26.1276 74.2409 26.4569 74.5962C26.7863 74.9472 27.1741 75.2181 27.6204 75.4087C28.0711 75.5951 28.5564 75.6882 29.0764 75.6882C29.4058 75.6882 29.6983 75.6666 29.9539 75.6232C30.2139 75.5799 30.4523 75.5149 30.6689 75.4282C30.8856 75.3416 31.0871 75.2354 31.2734 75.1097C31.4598 74.9841 31.6439 74.8367 31.8259 74.6677C31.8476 74.6504 31.8693 74.6374 31.8909 74.6287C31.9126 74.6157 31.9343 74.6092 31.9559 74.6092ZM39.0641 72.8153L37.1921 68.1677C37.1271 68.0161 37.0643 67.8341 37.0036 67.6217C36.9776 67.7257 36.9494 67.8254 36.9191 67.9207C36.8888 68.0117 36.8563 68.0962 36.8216 68.1742L34.9496 72.8153H39.0641ZM41.0986 76.1562H40.5851C40.5244 76.1562 40.4746 76.1411 40.4356 76.1107C40.3966 76.0761 40.3663 76.0327 40.3446 75.9807L39.2656 73.3092H34.7481L33.6691 75.9807C33.6518 76.0284 33.6214 76.0696 33.5781 76.1042C33.5348 76.1389 33.4828 76.1562 33.4221 76.1562H32.9151L36.6786 66.9587H37.3351L41.0986 76.1562ZM47.6891 67.5242H44.4586V76.1562H43.7891V67.5242H40.5391V66.9587H47.6891V67.5242ZM53.2955 72.8153L51.4235 68.1677C51.3585 68.0161 51.2957 67.8341 51.235 67.6217C51.209 67.7257 51.1809 67.8254 51.1505 67.9207C51.1202 68.0117 51.0877 68.0962 51.053 68.1742L49.181 72.8153H53.2955ZM55.33 76.1562H54.8165C54.7559 76.1562 54.706 76.1411 54.667 76.1107C54.628 76.0761 54.5977 76.0327 54.576 75.9807L53.497 73.3092H48.9795L47.9005 75.9807C47.8832 76.0284 47.8529 76.0696 47.8095 76.1042C47.7662 76.1389 47.7142 76.1562 47.6535 76.1562H47.1465L50.91 66.9587H51.5665L55.33 76.1562ZM61.8791 75.5907V76.1562H56.8546V66.9587H57.5241V75.5907H61.8791ZM71.0427 71.5542C71.0427 72.2649 70.9365 72.9106 70.7242 73.4912C70.5118 74.0676 70.2128 74.5616 69.8272 74.9732C69.4415 75.3806 68.9778 75.6969 68.4362 75.9222C67.8988 76.1432 67.3052 76.2538 66.6552 76.2538C66.0052 76.2538 65.4115 76.1432 64.8742 75.9222C64.3368 75.6969 63.8753 75.3806 63.4897 74.9732C63.104 74.5616 62.805 74.0676 62.5927 73.4912C62.3803 72.9106 62.2742 72.2649 62.2742 71.5542C62.2742 70.8479 62.3803 70.2066 62.5927 69.6302C62.805 69.0496 63.104 68.5556 63.4897 68.1482C63.8753 67.7366 64.3368 67.4181 64.8742 67.1927C65.4115 66.9674 66.0052 66.8547 66.6552 66.8547C67.3052 66.8547 67.8988 66.9674 68.4362 67.1927C68.9778 67.4137 69.4415 67.7301 69.8272 68.1417C70.2128 68.5534 70.5118 69.0496 70.7242 69.6302C70.9365 70.2066 71.0427 70.8479 71.0427 71.5542ZM70.3537 71.5542C70.3537 70.9129 70.2648 70.3366 70.0872 69.8252C69.9095 69.3139 69.6582 68.8806 69.3332 68.5252C69.0082 68.1699 68.6182 67.8991 68.1632 67.7127C67.7082 67.5221 67.2055 67.4267 66.6552 67.4267C66.1092 67.4267 65.6087 67.5221 65.1537 67.7127C64.6987 67.8991 64.3065 68.1699 63.9772 68.5252C63.6522 68.8806 63.3987 69.3139 63.2167 69.8252C63.039 70.3366 62.9502 70.9129 62.9502 71.5542C62.9502 72.1999 63.039 72.7784 63.2167 73.2897C63.3987 73.7967 63.6522 74.2279 63.9772 74.5832C64.3065 74.9386 64.6987 75.2094 65.1537 75.3957C65.6087 75.5821 66.1092 75.6752 66.6552 75.6752C67.2055 75.6752 67.7082 75.5821 68.1632 75.3957C68.6182 75.2094 69.0082 74.9386 69.3332 74.5832C69.6582 74.2279 69.9095 73.7967 70.0872 73.2897C70.2648 72.7784 70.3537 72.1999 70.3537 71.5542ZM80.5004 71.9832V75.2527C80.041 75.5777 79.5514 75.8269 79.0314 76.0002C78.5114 76.1736 77.9264 76.2603 77.2764 76.2603C76.5484 76.2603 75.894 76.1498 75.3134 75.9287C74.7327 75.7034 74.2365 75.3871 73.8249 74.9797C73.4175 74.5681 73.1034 74.0719 72.8824 73.4912C72.6657 72.9106 72.5574 72.2649 72.5574 71.5542C72.5574 70.8436 72.6635 70.2001 72.8759 69.6238C73.0925 69.0431 73.4002 68.5491 73.7989 68.1417C74.2019 67.7301 74.6872 67.4137 75.2549 67.1927C75.8225 66.9674 76.4617 66.8547 77.1724 66.8547C77.5234 66.8547 77.8462 66.8786 78.1409 66.9262C78.4399 66.9739 78.7172 67.0454 78.9729 67.1407C79.2285 67.2317 79.4669 67.3466 79.6879 67.4852C79.9089 67.6196 80.1212 67.7756 80.3249 67.9532L80.1429 68.2392C80.0822 68.3432 79.9912 68.3671 79.8699 68.3107C79.8049 68.2847 79.7117 68.2241 79.5904 68.1287C79.469 68.0334 79.3022 67.9337 79.0899 67.8297C78.8775 67.7257 78.6132 67.6326 78.2969 67.5502C77.9849 67.4679 77.6035 67.4267 77.1529 67.4267C76.5549 67.4267 76.0132 67.5221 75.5279 67.7127C75.0469 67.9034 74.6352 68.1764 74.2929 68.5317C73.9549 68.8871 73.6927 69.3204 73.5064 69.8317C73.3244 70.3431 73.2334 70.9172 73.2334 71.5542C73.2334 72.1999 73.3244 72.7806 73.5064 73.2962C73.6927 73.8119 73.9592 74.2496 74.3059 74.6092C74.6569 74.9689 75.0815 75.2441 75.5799 75.4347C76.0782 75.6254 76.6394 75.7207 77.2634 75.7207C77.5364 75.7207 77.7877 75.7034 78.0174 75.6687C78.2514 75.6341 78.4724 75.5864 78.6804 75.5257C78.8927 75.4607 79.0964 75.3827 79.2914 75.2917C79.4907 75.1964 79.6922 75.0902 79.8959 74.9732V72.4967H78.1344C78.0867 72.4967 78.0455 72.4816 78.0109 72.4512C77.9805 72.4209 77.9654 72.3862 77.9654 72.3472V71.9832H80.5004ZM86.0819 75.6817C86.5239 75.6817 86.9183 75.6059 87.2649 75.4542C87.6159 75.2982 87.9128 75.0837 88.1554 74.8107C88.3981 74.5377 88.5823 74.2171 88.7079 73.8487C88.8379 73.4761 88.9029 73.0752 88.9029 72.6462V66.9587H89.5659V72.6462C89.5659 73.1532 89.4858 73.6277 89.3254 74.0697C89.1651 74.5074 88.9333 74.8909 88.6299 75.2202C88.3309 75.5452 87.9648 75.8009 87.5314 75.9872C87.1024 76.1736 86.6193 76.2668 86.0819 76.2668C85.5446 76.2668 85.0593 76.1736 84.6259 75.9872C84.1969 75.8009 83.8308 75.5452 83.5274 75.2202C83.2284 74.8909 82.9988 74.5074 82.8384 74.0697C82.6781 73.6277 82.5979 73.1532 82.5979 72.6462V66.9587H83.2674V72.6397C83.2674 73.0687 83.3303 73.4696 83.4559 73.8422C83.5859 74.2106 83.7701 74.5312 84.0084 74.8042C84.2511 75.0772 84.5458 75.2917 84.8924 75.4477C85.2434 75.6037 85.6399 75.6817 86.0819 75.6817ZM97.6853 75.6037L97.6723 76.1562H92.1603V66.9587H97.6723V67.5112H92.8298V71.2292H96.8598V71.7687H92.8298V75.6037H97.6853Z" fill="black"/>
</svg>
